<svg xmlns="http://www.w3.org/2000/svg" width="512" height="512" viewBox="0 0 512 512">
  <defs>
    <linearGradient id="grad1" x1="0%" y1="0%" x2="100%" y2="100%">
      <stop offset="0%" style="stop-color:#3b82f6;stop-opacity:1" />
      <stop offset="100%" style="stop-color:#1d4ed8;stop-opacity:1" />
    </linearGradient>
  </defs>
  
  <!-- Background -->
  <rect width="512" height="512" rx="64" fill="url(#grad1)"/>
  
  <!-- Slide/Document -->
  <rect x="96" y="120" width="320" height="272" rx="16" fill="white"/>
  
  <!-- Header bar -->
  <rect x="96" y="120" width="320" height="48" rx="16" fill="#1e40af"/>
  <rect x="96" y="144" width="320" height="24" fill="#1e40af"/>
  
  <!-- Content lines -->
  <rect x="128" y="200" width="256" height="16" rx="8" fill="#3b82f6"/>
  <rect x="128" y="232" width="200" height="16" rx="8" fill="#93c5fd"/>
  <rect x="128" y="264" width="224" height="16" rx="8" fill="#93c5fd"/>
  <rect x="128" y="296" width="176" height="16" rx="8" fill="#93c5fd"/>
  <rect x="128" y="328" width="240" height="16" rx="8" fill="#93c5fd"/>
  
  <!-- Sparkle/AI indicator -->
  <circle cx="368" cy="352" r="48" fill="#fbbf24"/>
  <path d="M368 320 L374 340 L396 340 L378 354 L384 376 L368 362 L352 376 L358 354 L340 340 L362 340 Z" fill="#f59e0b"/>
</svg>
